<svg width="41" height="40" viewBox="0 0 41 40" fill="none" xmlns="http://www.w3.org/2000/svg">
<path d="M17.8688 9.69922H17.7611C15.7294 9.69922 14.0764 11.3522 14.0764 13.3839C14.0764 15.4157 15.7294 17.0687 17.7611 17.0687H17.8688C19.9006 17.0687 21.5535 15.4157 21.5535 13.3839C21.5535 11.3522 19.9006 9.69922 17.8688 9.69922V9.69922ZM17.8688 15.4718H17.7611C16.6099 15.4718 15.6733 14.5353 15.6733 13.384C15.6733 12.2328 16.6099 11.2962 17.7611 11.2962H17.8688C19.0201 11.2962 19.9566 12.2328 19.9566 13.384C19.9566 14.5353 19.0201 15.4718 17.8688 15.4718Z" fill="white"/>
<path d="M20.7552 18.4973H14.8749C14.4339 18.4973 14.0764 18.8549 14.0764 19.2958V33.8775C14.0764 34.3185 14.4339 34.676 14.8749 34.676H20.7552C21.1961 34.676 21.5536 34.3185 21.5536 33.8775V19.2958C21.5536 18.8548 21.1961 18.4973 20.7552 18.4973ZM19.9567 33.0791H15.6733V20.0943H19.9567V33.0791Z" fill="white"/>
<path d="M17.7756 4.375C13.0273 4.375 8.56316 6.22802 5.20574 9.59279C1.84879 12.9571 0 17.4299 0 22.1875C0 27.1736 2.08865 31.9291 5.74407 35.2995L5.45893 38.5706C5.43546 38.8394 5.54948 39.1019 5.76188 39.2684C5.97435 39.4348 6.25629 39.4827 6.51196 39.3957L9.99699 38.2083C12.4285 39.3973 15.0438 39.9999 17.7757 39.9999C22.5241 39.9999 26.9881 38.1469 30.3456 34.7821C33.7025 31.4178 35.5513 26.945 35.5513 22.1875C35.5513 17.4299 33.7025 12.957 30.3456 9.59279C26.9881 6.22802 22.524 4.375 17.7756 4.375V4.375ZM17.7756 38.403C15.1847 38.403 12.7098 37.8079 10.4199 36.6342C10.306 36.5759 10.1811 36.5463 10.0556 36.5463C9.9688 36.5463 9.88177 36.5604 9.79801 36.5889L7.15609 37.489L7.36944 35.042C7.39148 34.7893 7.29207 34.5411 7.10172 34.3735C3.60336 31.2927 1.59695 26.8511 1.59695 22.1875C1.59695 13.2462 8.85469 5.97195 17.7756 5.97195C26.6966 5.97195 33.9543 13.2462 33.9543 22.1875C33.9543 31.1287 26.6966 38.403 17.7756 38.403V38.403Z" fill="white"/>
<path d="M31.1023 0C30.6614 0 30.3038 0.357557 30.3038 0.798475C30.3038 1.23939 30.6614 1.59695 31.1023 1.59695C35.6142 1.59695 39.285 5.27648 39.285 9.79928C39.285 10.2402 39.6425 10.5978 40.0834 10.5978C40.5244 10.5978 40.8819 10.2402 40.8819 9.79928C40.8819 4.39592 36.4948 0 31.1023 0V0Z" fill="white"/>
<path d="M31.9424 4.04004C31.5014 4.04004 31.1439 4.3976 31.1439 4.83851C31.1439 5.27943 31.5014 5.63699 31.9424 5.63699C33.7682 5.63699 35.2537 7.12646 35.2537 8.95729C35.2537 9.39821 35.6113 9.75576 36.0522 9.75576C36.4931 9.75576 36.8507 9.39821 36.8507 8.95729C36.8507 6.24591 34.6489 4.04004 31.9424 4.04004V4.04004Z" fill="white"/>
</svg>
